<!--<svg viewBox="0 0 2048 1792" xmlns="http://www.w3.org/2000/svg"><path d="M704 576q0 80-56 136t-136 56-136-56-56-136 56-136 136-56 136 56 56 136zm1024 384v448h-1408v-192l320-320 160 160 512-512zm96-704h-1600q-13 0-22.5 9.5t-9.5 22.5v1216q0 13 9.5 22.5t22.5 9.5h1600q13 0 22.5-9.5t9.5-22.5v-1216q0-13-9.5-22.5t-22.5-9.5zm160 32v1216q0 66-47 113t-113 47h-1600q-66 0-113-47t-47-113v-1216q0-66 47-113t113-47h1600q66 0 113 47t47 113z"/></svg>-->
<!--<svg viewBox="0 0 2048 1792" xmlns="http://www.w3.org/2000/svg"><path d="M1024 672q119 0 203.5 84.5t84.5 203.5-84.5 203.5-203.5 84.5-203.5-84.5-84.5-203.5 84.5-203.5 203.5-84.5zm704-416q106 0 181 75t75 181v896q0 106-75 181t-181 75h-1408q-106 0-181-75t-75-181v-896q0-106 75-181t181-75h224l51-136q19-49 69.5-84.5t103.5-35.5h512q53 0 103.5 35.5t69.5 84.5l51 136h224zm-704 1152q185 0 316.5-131.5t131.5-316.5-131.5-316.5-316.5-131.5-316.5 131.5-131.5 316.5 131.5 316.5 316.5 131.5z"/></svg>-->
<!--<svg fill="#777" viewBox="0 0 1792 1792"-->
<!--     xmlns="http://www.w3.org/2000/svg"><path-->
<!--        d="M1152 640q0-106-75-181t-181-75-181 75-75 181 75 181 181 75 181-75 75-181zm256 0q0 109-33 179l-364 774q-16 33-47.5 52t-67.5 19-67.5-19-46.5-52l-365-774q-33-70-33-179 0-212 150-362t362-150 362 150 150 362z"/></svg>-->

<!--<svg fill="#333" xmlns="http://www.w3.org/2000/svg"-->
<!--     xmlns:xlink="http://www.w3.org/1999/xlink" version="1.1" x="0px" y="0px" viewBox="0 0 100 100" enable-background="new 0 0 100 100" xml:space="preserve"><g><path d="M78.976,28.004L22.785,5.181c-0.001,0-0.002-0.001-0.004-0.001l-0.027-0.011c-0.02-0.008-0.042-0.009-0.062-0.017   c-0.136-0.051-0.277-0.089-0.425-0.114c-0.059-0.01-0.118-0.013-0.178-0.018C22.023,5.014,21.958,5,21.889,5   c-0.048,0-0.092,0.011-0.139,0.014c-0.064,0.004-0.127,0.01-0.19,0.019c-0.118,0.017-0.231,0.044-0.342,0.078   c-0.052,0.016-0.103,0.028-0.154,0.048c-0.159,0.061-0.311,0.135-0.45,0.228c-0.003,0.002-0.006,0.002-0.008,0.004   c0,0-0.001,0.001-0.001,0.001c-0.142,0.096-0.268,0.211-0.385,0.335c-0.038,0.04-0.069,0.083-0.104,0.125   c-0.075,0.092-0.143,0.187-0.203,0.29c-0.029,0.05-0.057,0.099-0.082,0.151c-0.054,0.11-0.096,0.225-0.132,0.343   c-0.014,0.048-0.033,0.093-0.044,0.142c-0.039,0.168-0.064,0.34-0.064,0.52v45.67v39.734c0,1.269,1.029,2.298,2.298,2.298   c1.269,0,2.298-1.029,2.298-2.298V54.515l54.789-22.253c0.866-0.352,1.433-1.194,1.433-2.129S79.842,28.356,78.976,28.004z"></path></g></svg>-->

<!--<svg fill="#333" xmlns="http://www.w3.org/2000/svg" xmlns:xlink="http://www.w3.org/1999/xlink" version="1.1" x="0px" y="0px" viewBox="0 0 100 100" style="enable-background:new 0 0 100 100;" xml:space="preserve"><g><path d="M68.2,87.1l-14.7-4.2L63.7,80c0.5-0.2,0.8-0.7,0.7-1.2c-0.2-0.5-0.7-0.8-1.2-0.7L51,81.6V46c9.2-0.5,16.5-8.2,16.5-17.5   C67.5,18.8,59.6,11,50,11s-17.5,7.8-17.5,17.5c0,9.3,7.3,17,16.5,17.5v35.7l-12.2-3.5c-0.5-0.1-1.1,0.1-1.2,0.7   c-0.2,0.5,0.2,1,0.7,1.2L46.5,83l-14.7,4.2c-0.5,0.2-0.8,0.7-0.7,1.2c0.1,0.4,0.5,0.7,0.9,0.7h0.3l16.9-4.8   c0.2,0.2,0.5,0.4,0.8,0.4s0.6-0.1,0.8-0.4L67.7,89H68c0.4,0,0.8-0.3,0.9-0.7C69,87.8,68.7,87.2,68.2,87.1z M50,19.3   c-0.5,0-1-0.4-1-1c0-0.5,0.4-1,1-1c6.2,0,11.2,5,11.2,11.2c0,0.5-0.4,1-1,1c-0.5,0-1-0.4-1-1C59.2,23.4,55.1,19.3,50,19.3z"></path></g></svg>-->

<!--<svg fill="#333" xmlns="http://www.w3.org/2000/svg"-->
<!--     xmlns:xlink="http://www.w3.org/1999/xlink" version="1.1" x="0px" y="0px" viewBox="0 0 512 512" style="enable-background:new 0 0 512 512;" xml:space="preserve"><g><path d="M256,82.2c-51.6,0-93.7,42.1-93.7,93.7c0,49.4,38.3,89.9,86.7,93.5v160.3h14V269.5c48.4-3.6,86.7-44.1,86.7-93.5   C349.7,124.2,307.6,82.2,256,82.2z M256,255.8c-44,0-79.7-35.8-79.7-79.7c0-43.9,35.7-79.8,79.7-79.8s79.7,35.8,79.7,79.7   C335.7,219.8,300,255.8,256,255.8z"></path><path d="M196.6,169l13.8,2.4c3.4-19.7,18.1-35.5,37.5-40.3l-3.4-13.6C219.7,123.6,200.9,144,196.6,169z"></path></g></svg>-->

<svg
    fill="rgba(100, 100, 100, .85)"
    xmlns="http://www.w3.org/2000/svg"
    xmlns:xlink="http://www.w3.org/1999/xlink"
    viewBox="0 0 0.787 2.185"
>
    <path d="M0.393 0c0.109,0 0.207,0.044 0.278,0.115l0 0c0.072,0.072 0.116,0.17 0.116,0.278 0,0.109 -0.044,0.207 -0.116,0.278l0 0c-0.061,0.062 -0.143,0.103 -0.234,0.113l0 1.357c0,0.024 -0.02,0.044 -0.044,0.044 -0.024,0 -0.043,-0.02 -0.043,-0.044l0 -1.357c-0.091,-0.01 -0.173,-0.051 -0.235,-0.113l0 0c-0.071,-0.071 -0.115,-0.169 -0.115,-0.278 0,-0.108 0.044,-0.206 0.115,-0.278l0 0c0.072,-0.071 0.17,-0.115 0.278,-0.115z"></path>
</svg>