<svg
    fill="rgba(255, 0, 0)"
    xmlns="http://www.w3.org/2000/svg"
    xmlns:xlink="http://www.w3.org/1999/xlink"
    viewBox="0 0 0.787 2.185"
>
    <path d="M0.393 0c0.109,0 0.207,0.044 0.278,0.115l0 0c0.072,0.072 0.116,0.17 0.116,0.278 0,0.109 -0.044,0.207 -0.116,0.278l0 0c-0.061,0.062 -0.143,0.103 -0.234,0.113l0 1.357c0,0.024 -0.02,0.044 -0.044,0.044 -0.024,0 -0.043,-0.02 -0.043,-0.044l0 -1.357c-0.091,-0.01 -0.173,-0.051 -0.235,-0.113l0 0c-0.071,-0.071 -0.115,-0.169 -0.115,-0.278 0,-0.108 0.044,-0.206 0.115,-0.278l0 0c0.072,-0.071 0.17,-0.115 0.278,-0.115z"></path>
</svg>